<svg width="512" height="578" viewBox="0 0 512 578" fill="none" xmlns="http://www.w3.org/2000/svg">
<circle cx="256" cy="256" r="256" fill="url(#paint0_linear_20_7)"/>
<path d="M415 264.46C412.375 261.445 409.609 258.423 406.701 255.393C408.729 253.233 410.698 251.08 412.606 248.935C448.509 208.345 463.676 167.62 449.628 143.163C436.162 119.695 396.098 112.698 345.923 122.508C340.987 123.483 336.073 124.578 331.181 125.793C330.242 122.553 329.25 119.328 328.206 116.118C311.183 64.525 283.691 30.9775 255.595 31C228.662 31 202.624 62.4325 186.003 111.055C184.363 115.855 182.849 120.685 181.462 125.545C178.196 124.735 174.915 123.985 171.62 123.295C118.693 112.383 76.0795 119.583 62.0538 144.085C48.6098 167.553 62.6578 205.96 96.2344 244.705C99.575 248.53 103.005 252.28 106.524 255.955C102.364 260.23 98.449 264.528 94.7804 268.803C62.0091 307.008 48.7664 344.763 62.1881 368.14C76.0572 392.305 118.067 400.203 169.226 390.078C173.372 389.253 177.495 388.322 181.596 387.287C183.088 392.552 184.736 397.78 186.54 402.97C203.094 450.602 228.975 481 255.819 481C283.557 481 311.34 448.307 328.184 398.672C329.526 394.757 330.756 390.685 331.964 386.5C337.258 387.82 342.59 388.99 347.959 390.01C397.239 399.393 436.363 392.035 449.762 368.635C463.609 344.448 449.315 303.903 415 264.46ZM78.6073 153.67C87.2419 138.595 122.071 132.7 167.772 142.15C170.695 142.75 173.67 143.425 176.698 144.175C172.23 164.028 169.077 184.157 167.258 204.43C150.777 216.087 135.063 228.803 120.215 242.5C116.949 239.095 113.765 235.608 110.663 232.038C81.8732 198.873 70.5095 167.823 78.6073 153.67ZM165.558 282.55C154.149 273.843 143.524 264.933 133.882 255.978C143.501 247.068 154.127 238.203 165.535 229.518C165.118 238.353 164.916 247.195 164.931 256.045C164.931 264.895 165.14 273.73 165.558 282.55ZM165.558 371.2C146.168 375.543 126.15 376.26 106.502 373.315C101.116 372.891 95.8731 371.361 91.0983 368.818C86.3234 366.276 82.1178 362.775 78.7415 358.533C70.5766 344.358 81.2245 314.028 109.254 281.358C112.773 277.263 116.412 273.273 120.17 269.388C135.025 283.169 150.77 295.947 167.302 307.638C169.14 328.166 172.323 348.551 176.832 368.658C173.104 369.603 169.338 370.458 165.535 371.223L165.558 371.2ZM324.381 190.323C316.88 185.568 309.289 180.97 301.609 176.53C294.033 172.15 286.375 167.928 278.635 163.863C291.36 158.457 304.343 153.689 317.536 149.575C320.497 163.033 322.782 176.633 324.381 190.323ZM204.1 117.288C218.327 75.6625 239.399 50.2375 255.64 50.2375C272.931 50.215 295.39 77.6425 310.087 122.17C311.041 125.08 311.936 128.005 312.771 130.945C293.478 136.959 274.602 144.25 256.266 152.77C237.991 144.146 219.157 136.771 199.895 130.698C201.192 126.198 202.594 121.728 204.1 117.288ZM195.152 149.328C208.285 153.485 221.202 158.306 233.852 163.773C218.163 171.903 202.892 180.76 188.039 190.345C189.828 175.99 192.222 162.243 195.152 149.328ZM188.061 321.678C195.473 326.463 202.997 331.06 210.632 335.47C218.417 339.97 226.298 344.29 234.277 348.43C221.536 354.086 208.514 359.08 195.264 363.393C192.186 349.622 189.782 335.708 188.061 321.7V321.678ZM310.109 392.463C304.158 411.521 294.77 429.315 282.416 444.955C279.365 449.439 275.433 453.245 270.862 456.14C266.292 459.035 261.179 460.956 255.841 461.785C239.534 461.785 218.752 437.372 204.615 396.625C202.944 391.81 201.408 386.95 200.007 382.045C219.361 375.765 238.269 368.173 256.601 359.32C275.093 367.909 294.126 375.267 313.577 381.348C312.503 385.083 311.347 388.788 310.109 392.463ZM318.207 362.673C304.842 358.474 291.688 353.624 278.792 348.138C286.383 344.133 294.026 339.895 301.721 335.425C309.625 330.835 317.32 326.133 324.806 321.318C323.311 335.207 321.109 349.01 318.207 362.673ZM328.206 255.955C328.206 269.62 327.781 283.27 326.931 296.905C315.903 304.42 304.271 311.755 292.169 318.775C280.089 325.773 268.167 332.208 256.445 338.035C244.112 332.095 232.017 325.69 220.162 318.82C208.38 311.995 196.867 304.728 185.623 297.018C184.579 283.368 184.057 269.703 184.057 256.023C184.057 242.358 184.564 228.7 185.578 215.05C208.065 199.608 231.68 185.896 256.221 174.033C268.39 179.988 280.343 186.37 292.079 193.18C303.861 199.99 315.418 207.183 326.752 214.758C327.722 228.468 328.206 242.2 328.206 255.955ZM349.592 141.363C392.586 132.97 424.977 138.618 433.097 152.77C441.754 167.845 429.361 201.1 398.335 236.155C396.62 238.09 394.845 240.033 393.011 241.983C377.9 228.242 361.876 215.553 345.051 204.003C343.356 183.954 340.329 164.042 335.991 144.4C340.614 143.26 345.147 142.248 349.592 141.363ZM346.683 228.775C358.037 237.11 368.953 246.032 379.388 255.505C369.002 265.13 358.123 274.202 346.795 282.685C347.138 273.775 347.31 264.865 347.31 255.955C347.31 246.895 347.101 237.835 346.683 228.775ZM433.231 359.028C425.089 373.225 393.682 379.143 351.515 371.133C346.683 370.218 341.732 369.123 336.662 367.848C340.896 347.952 343.788 327.791 345.319 307.503C362.114 295.758 378.087 282.865 393.123 268.915C395.762 271.66 398.268 274.39 400.639 277.105C414.084 291.81 424.723 308.88 432.023 327.46C434.36 332.359 435.672 337.688 435.88 343.118C436.088 348.547 435.186 353.962 433.231 359.028ZM235.954 220.855C229.112 224.829 223.595 230.755 220.1 237.883C216.606 245.01 215.291 253.02 216.322 260.9C217.353 268.779 220.684 276.174 225.894 282.15C231.103 288.125 237.957 292.413 245.589 294.47C253.221 296.528 261.288 296.263 268.77 293.709C276.253 291.155 282.814 286.427 287.625 280.123C292.436 273.818 295.28 266.221 295.798 258.291C296.316 250.36 294.485 242.454 290.536 235.57C287.913 230.999 284.421 226.991 280.258 223.778C276.096 220.564 271.344 218.207 266.276 216.84C261.207 215.474 255.921 215.125 250.718 215.814C245.515 216.503 240.499 218.216 235.954 220.855Z" fill="url(#paint1_linear_20_7)" fill-opacity="0.5"/>
<path d="M211.25 465L76.7 150H173L286.4 422.7H229.7L345.8 150H434L299 465H211.25Z" fill="url(#paint2_linear_20_7)"/>
<defs>
<linearGradient id="paint0_linear_20_7" x1="256" y1="0" x2="256" y2="512" gradientUnits="userSpaceOnUse">
<stop stop-color="#E8EDDF"/>
<stop offset="1" stop-color="#CFDBD5"/>
</linearGradient>
<linearGradient id="paint1_linear_20_7" x1="256" y1="31" x2="256" y2="481" gradientUnits="userSpaceOnUse">
<stop stop-color="#149ECA"/>
<stop offset="1" stop-color="#30304A"/>
</linearGradient>
<linearGradient id="paint2_linear_20_7" x1="255.5" y1="29" x2="255.5" y2="578" gradientUnits="userSpaceOnUse">
<stop stop-color="#333533"/>
<stop offset="1" stop-color="#242423"/>
</linearGradient>
</defs>
</svg>
