<svg width="1920" height="1080" viewBox="0 0 1920 1080" fill="none" xmlns="http://www.w3.org/2000/svg">
<rect width="1920" height="1080" fill="url(#paint0_linear_1_2)"/>
<line x1="35" y1="83.5" x2="1885" y2="83.5" stroke="#333533" stroke-width="9"/>
<circle cx="1862" cy="38" r="23" fill="#333533"/>
<circle cx="1796" cy="38" r="23" fill="#333533"/>
<circle cx="1730" cy="38" r="23" fill="#333533"/>
<path d="M1849.55 25.5455C1849.72 25.3726 1849.92 25.2354 1850.15 25.1418C1850.37 25.0482 1850.62 25 1850.86 25C1851.1 25 1851.35 25.0482 1851.57 25.1418C1851.8 25.2354 1852 25.3726 1852.17 25.5455L1862 35.3751L1871.83 25.5455C1872 25.3729 1872.2 25.2359 1872.43 25.1425C1872.66 25.0491 1872.9 25.001 1873.14 25.001C1873.39 25.001 1873.63 25.0491 1873.85 25.1425C1874.08 25.2359 1874.28 25.3729 1874.46 25.5455C1874.63 25.7181 1874.77 25.9231 1874.86 26.1486C1874.95 26.3742 1875 26.6159 1875 26.8601C1875 27.1042 1874.95 27.3459 1874.86 27.5715C1874.77 27.7971 1874.63 28.002 1874.46 28.1746L1864.63 38.0005L1874.46 47.8263C1874.63 47.999 1874.77 48.2039 1874.86 48.4295C1874.95 48.655 1875 48.8968 1875 49.1409C1875 49.3851 1874.95 49.6268 1874.86 49.8524C1874.77 50.0779 1874.63 50.2829 1874.46 50.4555C1874.28 50.6281 1874.08 50.7651 1873.85 50.8585C1873.63 50.9519 1873.39 51 1873.14 51C1872.9 51 1872.66 50.9519 1872.43 50.8585C1872.2 50.7651 1872 50.6281 1871.83 50.4555L1862 40.6259L1852.17 50.4555C1852 50.6281 1851.8 50.7651 1851.57 50.8585C1851.35 50.9519 1851.1 51 1850.86 51C1850.62 51 1850.37 50.9519 1850.15 50.8585C1849.92 50.7651 1849.72 50.6281 1849.55 50.4555C1849.37 50.2829 1849.24 50.0779 1849.14 49.8524C1849.05 49.6268 1849 49.3851 1849 49.1409C1849 48.8968 1849.05 48.655 1849.14 48.4295C1849.24 48.2039 1849.37 47.999 1849.55 47.8263L1859.38 38.0005L1849.55 28.1746C1849.37 28.0022 1849.24 27.7973 1849.14 27.5717C1849.05 27.3461 1849 27.1043 1849 26.8601C1849 26.6158 1849.05 26.374 1849.14 26.1484C1849.24 25.9229 1849.37 25.718 1849.55 25.5455Z" fill="#F5CB5C"/>
<rect x="1784.5" y="26.5" width="23" height="23" stroke="#F5CB5C" stroke-width="3"/>
<line x1="1713" y1="38.5" x2="1747.13" y2="38.5" stroke="#F5CB5C" stroke-width="5"/>
<rect x="43" y="111" width="379" height="930" rx="12" fill="url(#paint1_linear_1_2)"/>
<rect x="192" y="377" width="78" height="78" rx="10" fill="#CFDBD5"/>
<rect x="308" y="377" width="78" height="78" rx="10" fill="#CFDBD5"/>
<rect x="76" y="235" width="321" height="32" fill="#E8EDDF" fill-opacity="0.5"/>
<rect x="76" y="283" width="321" height="32" fill="#E8EDDF" fill-opacity="0.5"/>
<rect x="467.5" y="113.5" width="1415" height="925" rx="9.5" stroke="#E8EDDF" stroke-width="5"/>
<rect x="76" y="187" width="321" height="32" fill="#E8EDDF" fill-opacity="0.5"/>
<line x1="64.5" y1="223.012" x2="64.5" y2="182" stroke="#F5CB5C" stroke-width="3"/>
<circle cx="76" cy="146" r="20" fill="#D9D9D9"/>
<rect x="103" y="141" width="133" height="10" rx="5" fill="#D9D9D9"/>
<line x1="56" y1="345" x2="408.023" y2="345" stroke="#F5CB5C" stroke-width="2"/>
<rect x="76" y="377" width="78" height="78" rx="10" fill="#CFDBD5"/>
<rect x="192" y="476" width="78" height="78" rx="10" fill="#CFDBD5"/>
<rect x="308" y="476" width="78" height="78" rx="10" fill="#CFDBD5"/>
<rect x="76" y="476" width="78" height="78" rx="10" fill="#CFDBD5"/>
<rect x="494" y="141" width="1032" height="857" rx="10" fill="url(#paint2_linear_1_2)"/>
<rect x="1538" y="141" width="324" height="117" rx="10" fill="#333533"/>
<circle cx="1597.5" cy="199.5" r="41.5" fill="#D9D9D9"/>
<rect x="1656" y="168" width="182" height="19" rx="9" fill="#D9D9D9"/>
<circle cx="1627.5" cy="229.5" r="11.5" fill="#FF0000"/>
<rect x="1770" y="210" width="68" height="25" rx="10" fill="#F5CB5C"/>
<rect x="1685" y="210" width="68" height="25" rx="10" fill="#D9D9D9"/>
<rect x="1538" y="567" width="324" height="117" rx="10" fill="#333533" fill-opacity="0.8"/>
<circle cx="1597.5" cy="625.5" r="41.5" fill="#D9D9D9"/>
<rect x="1656" y="594" width="182" height="19" rx="9" fill="#D9D9D9"/>
<circle cx="1627.5" cy="655.5" r="11.5" fill="#00851D"/>
<rect x="1770" y="636" width="68" height="25" rx="10" fill="#F5CB5C"/>
<rect x="1685" y="636" width="68" height="25" rx="10" fill="#D9D9D9"/>
<rect x="1538" y="709" width="324" height="117" rx="10" fill="#333533" fill-opacity="0.4"/>
<circle cx="1597.5" cy="767.5" r="41.5" fill="#D9D9D9"/>
<rect x="1656" y="736" width="182" height="19" rx="9" fill="#D9D9D9"/>
<circle cx="1627.5" cy="797.5" r="11.5" fill="#FF0000" fill-opacity="0.6"/>
<rect x="1770" y="778" width="68" height="25" rx="10" fill="#F5CB5C"/>
<rect x="1685" y="778" width="68" height="25" rx="10" fill="#D9D9D9"/>
<rect x="1538" y="851" width="324" height="117" rx="10" fill="#333533" fill-opacity="0.1"/>
<circle cx="1597.5" cy="909.5" r="41.5" fill="#D9D9D9"/>
<rect x="1656" y="878" width="182" height="19" rx="9" fill="#D9D9D9"/>
<circle cx="1627.5" cy="939.5" r="11.5" fill="#FF0000" fill-opacity="0.2"/>
<rect x="1770" y="920" width="68" height="25" rx="10" fill="#F5CB5C" fill-opacity="0.2"/>
<rect x="1685" y="920" width="68" height="25" rx="10" fill="#D9D9D9"/>
<rect x="1538" y="283" width="324" height="117" rx="10" fill="#333533"/>
<circle cx="1597.5" cy="341.5" r="41.5" fill="#D9D9D9"/>
<rect x="1656" y="310" width="182" height="19" rx="9" fill="#D9D9D9"/>
<circle cx="1627.5" cy="371.5" r="11.5" fill="#00851D"/>
<rect x="1770" y="352" width="68" height="25" rx="10" fill="#F5CB5C"/>
<rect x="1685" y="352" width="68" height="25" rx="10" fill="#D9D9D9"/>
<rect x="1538" y="425" width="324" height="117" rx="10" fill="#333533"/>
<circle cx="1597.5" cy="483.5" r="41.5" fill="#D9D9D9"/>
<rect x="1656" y="452" width="182" height="19" rx="9" fill="#D9D9D9"/>
<circle cx="1627.5" cy="513.5" r="11.5" fill="#F5CB5C"/>
<rect x="1770" y="494" width="68" height="25" rx="10" fill="#F5CB5C"/>
<rect x="1685" y="494" width="68" height="25" rx="10" fill="#D9D9D9"/>
<defs>
<linearGradient id="paint0_linear_1_2" x1="960" y1="0" x2="960" y2="1080" gradientUnits="userSpaceOnUse">
<stop stop-color="#F5CB5C"/>
<stop offset="1" stop-color="#E8EDDF"/>
</linearGradient>
<linearGradient id="paint1_linear_1_2" x1="232.5" y1="111" x2="232.5" y2="1041" gradientUnits="userSpaceOnUse">
<stop stop-color="#333533"/>
<stop offset="1" stop-color="#333533" stop-opacity="0.5"/>
</linearGradient>
<linearGradient id="paint2_linear_1_2" x1="1010" y1="141" x2="1010" y2="998" gradientUnits="userSpaceOnUse">
<stop stop-color="#CFDBD5"/>
<stop offset="1" stop-color="#E8EDDF"/>
</linearGradient>
</defs>
</svg>
